<svg width="212" height="82" viewBox="0 0 212 82" fill="none" xmlns="http://www.w3.org/2000/svg">
<path d="M0 0H8.41886V22.0212C10.5618 19.9616 14.0825 18.3774 17.9092 18.3774C26.0219 18.3774 31.3794 22.6549 31.3794 33.2694V53.0726H22.9605V34.3784C22.9605 29.3088 20.2053 26.4571 15.6132 26.4571C12.8579 26.4571 10.2557 27.5661 8.41886 29.6256V52.9142H0V0Z" fill="none"/>
<path d="M52.8081 45.6262C58.0124 45.6262 61.8392 41.824 61.8392 35.8038C61.8392 30.1005 58.0124 26.1399 52.8081 26.1399C47.9098 26.1399 43.93 29.9421 43.93 35.8038C43.93 41.6656 47.7567 45.6262 52.8081 45.6262ZM52.8081 18.0602C63.676 18.0602 70.7173 25.6646 70.7173 35.9623C70.7173 46.1015 63.676 53.8644 52.8081 53.8644C41.9401 53.8644 34.8988 46.2599 34.8988 35.9623C34.8988 25.6646 41.9401 18.0602 52.8081 18.0602Z" fill="none"/>
<path d="M83.578 40.0817V0H75.1591V43.5671C75.1591 50.5378 77.9144 53.7063 82.9657 53.7063C84.0372 53.7063 84.9556 53.5479 85.874 53.3895V45.4682C84.1902 45.1513 83.578 43.4087 83.578 40.0817Z" fill="none"/>
<path d="M89.8506 44.2014C88.7792 44.9935 87.7077 45.6272 86.4831 45.6272C86.33 45.6272 86.0239 45.6272 85.8708 45.6272V53.5484C88.32 53.0731 90.3098 52.1226 91.6875 51.0136L89.8506 44.2014Z" fill="none"/>
<path d="M103.631 18.8534H95.2122V52.9149H103.631V18.8534Z" fill="none"/>
<path d="M99.6465 12.0412C102.096 12.0412 104.545 10.1401 104.545 6.65473C104.545 3.48621 102.096 1.58511 99.6465 1.58511C96.7382 1.58511 94.4421 3.48621 94.4421 6.65473C94.4421 10.1401 96.7382 12.0412 99.6465 12.0412Z" fill="none"/>
<path d="M134.243 41.9828V28.3582C132.1 26.9324 129.957 26.2987 127.814 26.2987C122.916 26.2987 118.324 29.784 118.324 36.1211C118.324 42.1413 122.151 45.6266 126.59 45.6266C129.651 45.4682 132.253 43.8839 134.243 41.9828ZM134.243 49.4288C132.1 51.8052 129.039 53.5479 124.753 53.5479C115.262 53.5479 109.293 46.7356 109.293 36.2795C109.293 25.5066 116.793 18.0605 127.355 18.0605C130.263 18.0605 132.406 18.5358 134.243 19.6448V0H142.662V52.9142H134.243V49.4288Z" fill="none"/>
<path d="M166.386 42.933V39.4476C164.855 38.3387 163.019 37.7049 160.569 37.7049C157.814 37.7049 155.365 39.1308 155.365 41.9824C155.365 44.5173 157.355 45.9431 160.11 45.9431C163.478 46.1015 165.315 44.5173 166.386 42.933ZM149.548 21.3871C152.457 19.6444 156.896 18.0602 161.182 18.0602C170.825 18.0602 174.346 23.1298 174.346 32.16V52.9138H166.998V48.9532C165.315 51.488 161.794 53.3891 157.355 53.3891C151.385 53.3891 147.099 49.5869 147.099 42.933C147.099 35.487 152.457 31.8432 159.039 31.8432C161.947 31.8432 164.855 32.7938 166.539 34.0612C166.692 28.3578 165.315 25.3477 160.416 25.3477C156.59 25.3477 154.14 26.6152 151.844 27.7241L149.548 21.3871Z" fill="none"/>
<path d="M198.683 52.9141C193.785 65.1129 190.723 67.9646 185.978 67.9646C182.917 67.9646 180.774 66.6972 178.937 65.2713L181.692 58.6174C182.61 59.0927 183.835 59.8848 185.06 59.8848C187.203 59.8848 188.733 58.1422 190.111 54.6568L190.876 52.9141L175.722 18.8526H185.825L193.479 37.3884C194.091 39.1311 194.55 40.7153 195.162 42.2996C195.468 40.7153 195.775 38.9726 196.387 37.23L202.357 18.6941H212L198.683 52.9141Z" fill="none"/>
<path d="M118.784 61.1524H120.315V65.113C120.774 64.7962 121.233 64.4793 121.999 64.4793C123.836 64.4793 124.907 65.9052 124.907 67.8063C124.907 69.8658 123.529 71.2917 121.386 71.2917C120.315 71.2917 119.243 70.9748 118.784 70.4995V61.1524ZM120.315 66.8557V69.549C120.621 69.7074 121.08 69.8658 121.386 69.8658C122.458 69.8658 123.223 69.2321 123.223 67.9647C123.223 66.6973 122.458 66.0636 121.54 66.0636C121.08 66.222 120.621 66.5389 120.315 66.8557Z" fill="none"/>
<path d="M129.959 71.2923C129.04 73.6686 128.428 74.1439 127.51 74.1439C126.897 74.1439 126.591 73.9855 126.132 73.6686L126.591 72.4012C126.744 72.5597 127.051 72.5597 127.204 72.5597C127.663 72.5597 127.969 72.2428 128.122 71.6091L128.275 71.2923L125.367 64.7968H127.357L128.887 68.2822C129.04 68.599 129.04 68.9159 129.194 69.2327C129.194 68.9159 129.347 68.599 129.347 68.2822L130.418 64.7968H132.255L129.959 71.2923Z" fill="none"/>
<path d="M138.835 61.1536H140.366L144.499 71.2928H142.662L141.59 68.758H137.458L136.386 71.2928H134.702L138.835 61.1536ZM138.07 67.0153H140.978L139.601 63.3716L138.07 67.0153Z" fill="none"/>
<path d="M143.274 61.1524H151.233V62.7366H148.172V71.1332H146.488V62.7366H143.274V61.1524Z" fill="none"/>
<path d="M152.763 61.3115C153.375 61.3115 155.518 61.3115 155.671 61.3115C158.273 61.3115 159.192 62.7373 159.192 64.48C159.192 66.2227 158.12 67.0148 157.355 67.3317L160.416 71.4507H158.273L155.671 67.6485H154.446V71.4507H152.763V61.3115ZM154.446 62.8958V65.9059H155.518C156.436 65.9059 157.355 65.4306 157.355 64.3216C157.355 63.5295 156.896 62.8958 155.518 62.8958C155.212 62.8958 154.906 62.8958 154.446 62.8958Z" fill="none"/>
<path d="M162.099 61.1524H163.782V71.1332H162.099V61.1524Z" fill="none"/>
<path d="M169.601 61.1524H171.132L175.265 71.2916H173.428L172.357 68.7568H168.224L167.152 71.2916H165.469L169.601 61.1524ZM168.836 67.0141H171.744L170.367 63.3703L168.836 67.0141Z" fill="none"/>
<path d="M0 7H8.41886V29.0212C10.5618 26.9616 14.0825 25.3774 17.9092 25.3774C26.0219 25.3774 31.3794 29.6549 31.3794 40.2694V60.0726H22.9605V41.3784C22.9605 36.3088 20.2053 33.4571 15.6132 33.4571C12.8579 33.4571 10.2557 34.5661 8.41886 36.6256V59.9142H0V7Z" fill="#3D5964"/>
<path d="M52.8081 52.6262C58.0124 52.6262 61.8392 48.824 61.8392 42.8038C61.8392 37.1005 58.0124 33.1399 52.8081 33.1399C47.9098 33.1399 43.93 36.9421 43.93 42.8038C43.93 48.6656 47.7567 52.6262 52.8081 52.6262ZM52.8081 25.0602C63.676 25.0602 70.7173 32.6646 70.7173 42.9623C70.7173 53.1015 63.676 60.8644 52.8081 60.8644C41.9401 60.8644 34.8988 53.2599 34.8988 42.9623C34.8988 32.6646 41.9401 25.0602 52.8081 25.0602Z" fill="#3D5964"/>
<path d="M83.578 47.0817V7H75.1591V50.5671C75.1591 57.5378 77.9144 60.7063 82.9657 60.7063C84.0372 60.7063 84.9556 60.5479 85.874 60.3895V52.4682C84.1902 52.1513 83.578 50.4087 83.578 47.0817Z" fill="#3D5964"/>
<path d="M89.8506 51.2014C88.7792 51.9935 87.7077 52.6272 86.4831 52.6272C86.33 52.6272 86.0239 52.6272 85.8708 52.6272V60.5484C88.32 60.0731 90.3098 59.1226 91.6875 58.0136L89.8506 51.2014Z" fill="#3D5964"/>
<path d="M103.631 25.8534H95.2122V59.9149H103.631V25.8534Z" fill="#3D5964"/>
<path d="M99.6465 19.0412C102.096 19.0412 104.545 17.1401 104.545 13.6547C104.545 10.4862 102.096 8.58511 99.6465 8.58511C96.7382 8.58511 94.4421 10.4862 94.4421 13.6547C94.4421 17.1401 96.7382 19.0412 99.6465 19.0412Z" fill="#60A398"/>
<path d="M134.243 48.9828V35.3582C132.1 33.9324 129.957 33.2987 127.814 33.2987C122.916 33.2987 118.324 36.784 118.324 43.1211C118.324 49.1413 122.151 52.6266 126.59 52.6266C129.651 52.4682 132.253 50.8839 134.243 48.9828ZM134.243 56.4288C132.1 58.8052 129.039 60.5479 124.753 60.5479C115.262 60.5479 109.293 53.7356 109.293 43.2795C109.293 32.5066 116.793 25.0605 127.355 25.0605C130.263 25.0605 132.406 25.5358 134.243 26.6448V7H142.662V59.9142H134.243V56.4288Z" fill="#3D5964"/>
<path d="M166.386 49.933V46.4476C164.855 45.3387 163.019 44.7049 160.569 44.7049C157.814 44.7049 155.365 46.1308 155.365 48.9824C155.365 51.5173 157.355 52.9431 160.11 52.9431C163.478 53.1015 165.315 51.5173 166.386 49.933ZM149.548 28.3871C152.457 26.6444 156.896 25.0602 161.182 25.0602C170.825 25.0602 174.346 30.1298 174.346 39.16V59.9138H166.998V55.9532C165.315 58.488 161.794 60.3891 157.355 60.3891C151.385 60.3891 147.099 56.5869 147.099 49.933C147.099 42.487 152.457 38.8432 159.039 38.8432C161.947 38.8432 164.855 39.7938 166.539 41.0612C166.692 35.3578 165.315 32.3477 160.416 32.3477C156.59 32.3477 154.14 33.6152 151.844 34.7241L149.548 28.3871Z" fill="#3D5964"/>
<path d="M198.683 59.9141C193.785 72.1129 190.723 74.9646 185.978 74.9646C182.917 74.9646 180.774 73.6972 178.937 72.2713L181.692 65.6174C182.61 66.0927 183.835 66.8848 185.06 66.8848C187.203 66.8848 188.733 65.1422 190.111 61.6568L190.876 59.9141L175.722 25.8526H185.825L193.479 44.3884C194.091 46.1311 194.55 47.7153 195.162 49.2996C195.468 47.7153 195.775 45.9726 196.387 44.23L202.357 25.6941H212L198.683 59.9141Z" fill="#3D5964"/>
<path d="M118.784 68.1524H120.315V72.113C120.774 71.7962 121.233 71.4793 121.999 71.4793C123.836 71.4793 124.907 72.9052 124.907 74.8063C124.907 76.8658 123.529 78.2917 121.386 78.2917C120.315 78.2917 119.243 77.9748 118.784 77.4995V68.1524ZM120.315 73.8557V76.549C120.621 76.7074 121.08 76.8658 121.386 76.8658C122.458 76.8658 123.223 76.2321 123.223 74.9647C123.223 73.6973 122.458 73.0636 121.54 73.0636C121.08 73.222 120.621 73.5389 120.315 73.8557Z" fill="#60A398"/>
<path d="M129.959 78.2923C129.04 80.6686 128.428 81.1439 127.51 81.1439C126.897 81.1439 126.591 80.9855 126.132 80.6686L126.591 79.4012C126.744 79.5597 127.051 79.5597 127.204 79.5597C127.663 79.5597 127.969 79.2428 128.122 78.6091L128.275 78.2923L125.367 71.7968H127.357L128.887 75.2822C129.04 75.599 129.04 75.9159 129.194 76.2327C129.194 75.9159 129.347 75.599 129.347 75.2822L130.418 71.7968H132.255L129.959 78.2923Z" fill="#60A398"/>
<path d="M138.835 68.1536H140.366L144.499 78.2928H142.662L141.59 75.758H137.458L136.386 78.2928H134.702L138.835 68.1536ZM138.07 74.0153H140.978L139.601 70.3716L138.07 74.0153Z" fill="#60A398"/>
<path d="M143.274 68.1524H151.233V69.7366H148.172V78.1332H146.488V69.7366H143.274V68.1524Z" fill="#60A398"/>
<path d="M152.763 68.3115C153.375 68.3115 155.518 68.3115 155.671 68.3115C158.273 68.3115 159.192 69.7373 159.192 71.48C159.192 73.2227 158.12 74.0148 157.355 74.3317L160.416 78.4507H158.273L155.671 74.6485H154.446V78.4507H152.763V68.3115ZM154.446 69.8958V72.9059H155.518C156.436 72.9059 157.355 72.4306 157.355 71.3216C157.355 70.5295 156.896 69.8958 155.518 69.8958C155.212 69.8958 154.906 69.8958 154.446 69.8958Z" fill="#60A398"/>
<path d="M162.099 68.1524H163.782V78.1332H162.099V68.1524Z" fill="#60A398"/>
<path d="M169.601 68.1524H171.132L175.265 78.2916H173.428L172.357 75.7568H168.224L167.152 78.2916H165.469L169.601 68.1524ZM168.836 74.0141H171.744L170.367 70.3703L168.836 74.0141Z" fill="#60A398"/>
</svg>
